<svg viewBox="0 0 88 88" fill="currentColor" xmlns="http://www.w3.org/2000/svg">
<g id="Property 1=logo-filled">
<path fill="currentColor" id="logo-filled" fill-rule="evenodd" clip-rule="evenodd" d="M50.8323 80.1594C58.4537 78.9823 65.5019 75.408 70.955 69.955L45.2924 44.2924L78.1191 28.8153C74.8304 21.84 69.4053 16.0935 62.6305 12.4094C55.8557 8.72523 48.0834 7.29488 40.4409 8.32577C32.7984 9.35666 25.6829 12.7952 20.1264 18.1427C14.5699 23.4902 10.8612 30.4687 9.53812 38.0661C8.21509 45.6635 9.34652 53.4848 12.7683 60.3958C16.1901 67.3068 21.7244 72.9482 28.5686 76.5019C35.4127 80.0555 43.211 81.3366 50.8323 80.1594ZM40.9672 30.9673C43.1763 30.9673 44.9672 29.1764 44.9672 26.9673C44.9672 24.7581 43.1763 22.9673 40.9672 22.9673C38.7581 22.9673 36.9672 24.7581 36.9672 26.9673C36.9672 29.1764 38.7581 30.9673 40.9672 30.9673Z"  />
</g>
</svg>
