<svg viewBox="0 0 32 32" fill="currentColor" xmlns="http://www.w3.org/2000/svg">
<path fill-rule="evenodd" clip-rule="evenodd" d="M26.5 3.08838C25.3597 3.29158 24.2997 3.83925 23.4695 4.66948C22.4005 5.73843 21.8 7.18827 21.8 8.70001V19.2H26.5V3.08838ZM22.0553 3.25526C23.4993 1.81123 25.4578 1 27.5 1C28.0523 1 28.5 1.44772 28.5 2V20.2C28.5 20.7523 28.0523 21.2 27.5 21.2H20.8C20.2477 21.2 19.8 20.7523 19.8 20.2V8.70001C19.8 6.65785 20.6112 4.6993 22.0553 3.25526Z" fill="currentColor"/>
<path fill-rule="evenodd" clip-rule="evenodd" d="M22.6 20.1C22.6 19.5477 23.0477 19.1 23.6 19.1H27.5C28.0523 19.1 28.5 19.5477 28.5 20.1V28.5C28.5 29.2691 28.1945 30.0067 27.6506 30.5506C27.1068 31.0945 26.3691 31.4 25.6 31.4H25.5C24.7309 31.4 23.9933 31.0945 23.4494 30.5506C22.9055 30.0067 22.6 29.2691 22.6 28.5V20.1ZM24.6 21.1V28.5C24.6 28.7387 24.6948 28.9676 24.8636 29.1364C25.0324 29.3052 25.2613 29.4 25.5 29.4H25.6C25.8387 29.4 26.0676 29.3052 26.2364 29.1364C26.4052 28.9676 26.5 28.7387 26.5 28.5V21.1H24.6Z" fill="currentColor"/>
<path fill-rule="evenodd" clip-rule="evenodd" d="M8.00318 15.5203C8.04476 15.0006 8.47864 14.6 9 14.6H11.7C12.2214 14.6 12.6553 15.0006 12.6968 15.5203L13.6968 28.0203C13.6989 28.0465 13.7 28.0728 13.7 28.0991C13.7004 28.5448 13.6105 28.986 13.4358 29.396C13.2611 29.806 13.0051 30.1763 12.6833 30.4847C12.3615 30.7931 11.9805 31.0331 11.5635 31.1903C11.1532 31.3449 10.7163 31.4161 10.2783 31.3999C9.41093 31.3942 8.58032 31.0472 7.96657 30.4335C7.34772 29.8146 7 28.9752 7 28.1C7 28.0734 7.00106 28.0468 7.00318 28.0203L8.00318 15.5203ZM9.92319 16.6L9.00045 28.1343C9.00921 28.4666 9.14506 28.7835 9.38078 29.0192C9.62457 29.263 9.95523 29.4 10.3 29.4C10.3145 29.4 10.329 29.4003 10.3435 29.4009C10.5189 29.4086 10.694 29.3806 10.8583 29.3187C11.0227 29.2568 11.1727 29.1622 11.2995 29.0408C11.4262 28.9193 11.5271 28.7734 11.5959 28.6119C11.6603 28.4607 11.6955 28.2988 11.6996 28.1348L10.7768 16.6H9.92319Z" fill="currentColor"/>
<path fill-rule="evenodd" clip-rule="evenodd" d="M10.3 3.39999C8.11881 3.39999 6 5.69128 6 9C6 12.3087 8.11881 14.6 10.3 14.6C12.4812 14.6 14.6 12.3087 14.6 9C14.6 5.69128 12.4812 3.39999 10.3 3.39999ZM4 9C4 5.01856 6.62701 1.39999 10.3 1.39999C13.973 1.39999 16.6 5.01857 16.6 9C16.6 12.9814 13.973 16.6 10.3 16.6C6.62701 16.6 4 12.9814 4 9Z" fill="currentColor"/>
</svg>
