<svg viewBox="0 0 32 32" fill="currentColor" xmlns="http://www.w3.org/2000/svg">
<path fill-rule="evenodd" clip-rule="evenodd" d="M23.5632 13.1127C23.9366 12.7058 24.5691 12.6786 24.9761 13.052C26.1583 14.1367 27.0937 15.4628 27.7188 16.9405C28.344 18.4182 28.6443 20.0129 28.5996 21.6167C28.5842 22.1688 28.1242 22.6038 27.5721 22.5884C27.02 22.573 26.585 22.113 26.6004 21.5609C26.6371 20.2435 26.3904 18.9336 25.8769 17.7198C25.3634 16.506 24.595 15.4167 23.6239 14.5256C23.217 14.1523 23.1898 13.5197 23.5632 13.1127Z" fill="currentColor"/>
<path fill-rule="evenodd" clip-rule="evenodd" d="M20.3452 12.4238C19.0541 11.9338 17.684 11.6847 16.3029 11.6888L16.3 11.6888C10.5983 11.6888 6 15.8935 6 21.5888C6 22.1411 5.55228 22.5888 5 22.5888C4.44772 22.5888 4 22.1411 4 21.5888C4 14.6846 9.60082 9.68957 16.2985 9.68884" fill="currentColor"/>
<path fill-rule="evenodd" clip-rule="evenodd" d="M1 25.5888C1 25.0365 1.44772 24.5888 2 24.5888H30.6C31.1523 24.5888 31.6 25.0365 31.6 25.5888C31.6 26.1411 31.1523 26.5888 30.6 26.5888H2C1.44772 26.5888 1 26.1411 1 25.5888Z" fill="currentColor"/>
<path fill-rule="evenodd" clip-rule="evenodd" d="M22.8476 9.92118C23.1799 9.83449 23.5334 9.92438 23.7839 10.1593L25.384 11.6593C25.6573 11.9156 25.7645 12.3032 25.6615 12.6635L25.2697 14.0349L25.0762 14.9058L25.0719 14.9243C24.5234 17.1887 23.3578 19.2566 21.7047 20.8984C21.6719 20.9309 21.6369 20.9612 21.6 20.9889L21.2704 21.236C20.9373 21.5834 20.5394 21.8626 20.0989 22.0578C19.6269 22.2669 19.1164 22.375 18.6 22.375C18.0837 22.375 17.5731 22.2669 17.1011 22.0578C16.6372 21.8522 16.2205 21.5534 15.877 21.18L14.2962 19.5992C13.937 19.2462 13.6515 18.8253 13.4563 18.3609C13.2605 17.8948 13.1596 17.3943 13.1596 16.8888C13.1596 16.3832 13.2605 15.8828 13.4563 15.4167C13.6521 14.9507 13.939 14.5284 14.3001 14.1745C14.3315 14.1438 14.3649 14.1151 14.4 14.0888L14.7339 13.8384C16.2922 12.2181 18.2748 11.0676 20.4561 10.519C20.5261 10.5014 20.5978 10.4915 20.67 10.4893L22.8476 9.92118ZM22.8186 11.9957L21.0524 12.4564C20.9792 12.4756 20.904 12.4863 20.8284 12.4884C19.033 12.9628 17.4043 13.928 16.1257 15.2768C16.087 15.3176 16.045 15.3551 16 15.3888L15.6586 15.6449C15.5069 15.8035 15.3853 15.9888 15.3001 16.1915C15.2074 16.4123 15.1596 16.6493 15.1596 16.8888C15.1596 17.1283 15.2074 17.3654 15.3001 17.5861C15.3929 17.8069 15.5288 18.0069 15.6999 18.1745L15.7072 18.1817L17.3071 19.7817C17.3186 19.7932 17.3298 19.805 17.3407 19.817C17.5001 19.9927 17.6944 20.1331 17.9113 20.2292C18.1283 20.3253 18.3629 20.375 18.6 20.375C18.8371 20.375 19.0717 20.3253 19.2887 20.2292C19.5056 20.1331 19.7 19.9927 19.8593 19.817C19.902 19.7699 19.9491 19.727 20 19.6888L20.3433 19.4314C21.7065 18.0602 22.6689 16.3419 23.1259 14.4625L23.3238 13.5719C23.3281 13.5525 23.333 13.5332 23.3385 13.5141L23.5708 12.7009L22.8186 11.9957Z" fill="currentColor"/>
<path fill-rule="evenodd" clip-rule="evenodd" d="M24.7389 7.2659C24.5842 7.46692 24.4869 7.70643 24.4578 7.95895C24.4267 8.22815 24.4745 8.50065 24.5953 8.74329C24.6973 8.94835 24.7259 9.18222 24.6762 9.40582L24.3901 10.6932L24.9427 11.2883L26.1831 11.0127C26.3734 10.9704 26.5719 10.9846 26.7542 11.0537C27.0414 11.1624 27.3517 11.1959 27.6555 11.1509C27.9362 11.1093 28.2027 11.002 28.4336 10.8382C28.6293 10.6138 28.7443 10.2538 28.6628 9.74806C28.5754 9.2066 28.264 8.56708 27.6929 7.99596C27.1306 7.43364 26.4699 7.11659 25.8956 7.02685C25.3421 6.94036 24.958 7.06963 24.7389 7.2659ZM26.2044 5.05083C27.2301 5.2111 28.2694 5.74405 29.1071 6.58174C29.936 7.41061 30.4746 8.42109 30.6372 9.42962C30.8001 10.4397 30.587 11.516 29.8071 12.2959C29.7766 12.3264 29.7442 12.3549 29.7101 12.3812C29.1964 12.7767 28.59 13.0343 27.9486 13.1293C27.4129 13.2087 26.8677 13.1725 26.3492 13.0245L24.8169 13.365C24.4703 13.442 24.1088 13.3295 23.8672 13.0693L22.5672 11.6693C22.3435 11.4284 22.2525 11.0929 22.3238 10.7719L22.6544 9.28441C22.4738 8.78915 22.4101 8.25687 22.471 7.72971C22.5464 7.07586 22.81 6.45801 23.2298 5.95108C23.2497 5.92699 23.2708 5.90385 23.2929 5.88173C24.0801 5.09452 25.1857 4.89166 26.2044 5.05083Z" fill="currentColor"/>
</svg>
