<svg viewBox="0 0 32 32" fill="currentColor" xmlns="http://www.w3.org/2000/svg">
<path fill-rule="evenodd" clip-rule="evenodd" d="M2.89299 16.1928C3.08053 16.0053 3.33488 15.8999 3.6001 15.8999H27.8001C28.0653 15.8999 28.3197 16.0053 28.5072 16.1928C28.6947 16.3803 28.8001 16.6347 28.8001 16.8999C28.8001 20.3742 27.4199 23.7063 24.9632 26.163C22.5065 28.6197 19.1744 29.9999 15.7001 29.9999C12.2258 29.9999 8.89373 28.6197 6.437 26.163C3.98027 23.7063 2.6001 20.3742 2.6001 16.8999C2.6001 16.6347 2.70546 16.3803 2.89299 16.1928ZM4.64521 17.8999C4.87824 20.4771 6.00658 22.9042 7.85121 24.7488C9.93287 26.8305 12.7562 27.9999 15.7001 27.9999C18.644 27.9999 21.4673 26.8305 23.549 24.7488C25.3936 22.9042 26.522 20.4771 26.755 17.8999H4.64521Z" fill="currentColor"/>
<path fill-rule="evenodd" clip-rule="evenodd" d="M11.4501 9.13306C10.3866 9.13306 9.35914 9.51822 8.55773 10.2173C7.75632 10.9164 7.23523 11.8821 7.09084 12.9357C7.01586 13.4829 6.5115 13.8656 5.96433 13.7907C5.41716 13.7157 5.03438 13.2113 5.10936 12.6641C5.31937 11.1316 6.07733 9.72698 7.24302 8.71014C8.40871 7.69329 9.90325 7.13306 11.4501 7.13306C12.997 7.13306 14.4915 7.69329 15.6572 8.71014C16.8229 9.72698 17.5808 11.1316 17.7908 12.6641C17.8658 13.2113 17.483 13.7157 16.9359 13.7907C16.3887 13.8656 15.8843 13.4829 15.8094 12.9357C15.665 11.8821 15.1439 10.9164 14.3425 10.2173C13.5411 9.51822 12.5136 9.13306 11.4501 9.13306Z" fill="currentColor"/>
<path fill-rule="evenodd" clip-rule="evenodd" d="M19.0958 5.89996C18.142 5.89611 17.1984 6.09594 16.3281 6.48609C15.4577 6.87624 14.6807 7.44772 14.049 8.1623C13.6832 8.57608 13.0513 8.61498 12.6375 8.24919C12.2237 7.88339 12.1848 7.25142 12.5506 6.83764C13.3709 5.90975 14.3798 5.16768 15.51 4.66107C16.6395 4.15474 17.864 3.89527 19.1018 3.89997C20.2663 3.90014 21.4192 4.13144 22.4936 4.58046C23.5687 5.02974 24.5438 5.68804 25.3625 6.51719C26.1811 7.34633 26.827 8.32979 27.2625 9.41052C27.6981 10.4912 27.9147 11.6477 27.8997 12.8128C27.8927 13.365 27.4392 13.807 26.887 13.7999C26.3348 13.7928 25.8928 13.3394 25.8999 12.7872C25.9114 11.8869 25.7441 10.9932 25.4075 10.1581C25.071 9.32302 24.5719 8.56307 23.9393 7.92236C23.3067 7.28166 22.5532 6.77297 21.7224 6.4258C20.8917 6.07863 20.0003 5.89989 19.0999 5.89997L19.0958 5.89996Z" fill="currentColor"/>
<path fill-rule="evenodd" clip-rule="evenodd" d="M18.6811 9.89974C17.9009 9.88509 17.1422 10.156 16.5478 10.6616C16.1271 11.0195 15.496 10.9685 15.1382 10.5478C14.7804 10.1271 14.8313 9.49601 15.252 9.13818C16.2155 8.31866 17.4446 7.8785 18.7091 7.89992C20.1169 7.90203 21.4683 8.45383 22.4753 9.43791C23.4845 10.4242 24.0676 11.7664 24.0996 13.1772C24.1122 13.7293 23.6748 14.1871 23.1226 14.1997C22.5705 14.2122 22.1127 13.7748 22.1002 13.2226C22.08 12.3344 21.7129 11.4893 21.0774 10.8683C20.442 10.2473 19.5887 9.89968 18.7002 9.89991L18.6811 9.89974Z" fill="currentColor"/>
<path fill-rule="evenodd" clip-rule="evenodd" d="M2.9755 1.31094C3.35605 0.910698 3.98902 0.894741 4.38926 1.2753L10.4893 7.0753C10.8895 7.45586 10.9054 8.08883 10.5249 8.48907C10.1443 8.88931 9.51137 8.90527 9.11113 8.52471L3.01114 2.7247C2.61089 2.34415 2.59494 1.71118 2.9755 1.31094Z" fill="currentColor"/>
<path fill-rule="evenodd" clip-rule="evenodd" d="M2.27241 6.81399C2.65129 6.41215 3.28418 6.39354 3.68602 6.77241L7.18602 10.0724C7.58785 10.4513 7.60647 11.0842 7.22759 11.486C6.84872 11.8879 6.21583 11.9065 5.81399 11.5276L2.31399 8.22759C1.91215 7.84872 1.89354 7.21583 2.27241 6.81399Z" fill="currentColor"/>
</svg>
