<svg viewBox="0 0 31 27" fill="currentColor" xmlns="http://www.w3.org/2000/svg">
<path fill-rule="evenodd" clip-rule="evenodd" d="M2.90265 20C2.90265 19.4477 3.35036 19 3.90265 19H26.5026C27.0549 19 27.5026 19.4477 27.5026 20V21.5C27.5026 22.8261 26.9758 24.0979 26.0382 25.0355C25.1005 25.9732 23.8287 26.5 22.5026 26.5H7.90265C6.57657 26.5 5.3048 25.9732 4.36711 25.0355C3.42943 24.0979 2.90265 22.8261 2.90265 21.5V20ZM4.90265 21V21.5C4.90265 22.2957 5.21872 23.0587 5.78133 23.6213C6.34393 24.1839 7.107 24.5 7.90265 24.5H22.5026C23.2983 24.5 24.0613 24.1839 24.6239 23.6213C25.1866 23.0587 25.5026 22.2957 25.5026 21.5V21H4.90265Z" fill="currentColor"/>
<path fill-rule="evenodd" clip-rule="evenodd" d="M12.5026 2C10.487 2 8.55389 2.80071 7.12862 4.22598C5.94114 5.41346 5.18721 6.95346 4.96869 8.60001H25.5366C25.3181 6.95347 24.5641 5.41347 23.3766 4.22598C21.9514 2.80071 20.0183 2 18.0026 2H12.5026ZM5.7144 2.81177C7.51475 1.01142 9.95655 0 12.5026 0H18.0026C20.5487 0 22.9905 1.01142 24.7908 2.81177C26.5912 4.61211 27.6027 7.05392 27.6027 9.60001C27.6027 10.1523 27.1549 10.6 26.6027 10.6H3.90265C3.63743 10.6 3.38308 10.4946 3.19554 10.3071C3.00801 10.1196 2.90265 9.86522 2.90265 9.60001C2.90265 7.05394 3.91405 4.61212 5.7144 2.81177Z" fill="currentColor"/>
<path fill-rule="evenodd" clip-rule="evenodd" d="M8.92435 4.7652C9.33017 4.39059 9.96283 4.4159 10.3374 4.82172L11.5374 6.12172C11.9121 6.52754 11.8867 7.1602 11.4809 7.5348C11.0751 7.90941 10.4424 7.88411 10.0678 7.47829L8.86783 6.17828C8.49323 5.77246 8.51853 5.1398 8.92435 4.7652Z" fill="currentColor"/>
<path fill-rule="evenodd" clip-rule="evenodd" d="M19.7222 4.2672C20.1269 3.8914 20.7596 3.91484 21.1354 4.31955L22.4354 5.71954C22.8112 6.12426 22.7878 6.75699 22.3831 7.13279C21.9784 7.50859 21.3456 7.48516 20.9698 7.08044L19.6699 5.68045C19.2941 5.27574 19.3175 4.64301 19.7222 4.2672Z" fill="currentColor"/>
<path fill-rule="evenodd" clip-rule="evenodd" d="M16.5354 3.61955C16.9112 4.02426 16.8878 4.65699 16.4831 5.03279L15.0831 6.3328C14.6784 6.7086 14.0457 6.68517 13.6699 6.28046C13.2941 5.87575 13.3175 5.24302 13.7222 4.86722L15.1222 3.56721C15.5269 3.19141 16.1596 3.21484 16.5354 3.61955Z" fill="currentColor"/>
<path fill-rule="evenodd" clip-rule="evenodd" d="M0 17C0 14.7909 1.79086 13 4 13H27C29.2091 13 31 14.7909 31 17C31 19.2091 29.2091 21 27 21H4C1.79086 21 0 19.2091 0 17ZM4 15C2.89543 15 2 15.8954 2 17C2 18.1046 2.89543 19 4 19H27C28.1046 19 29 18.1046 29 17C29 15.8954 28.1046 15 27 15H4Z" fill="currentColor"/>
<path fill-rule="evenodd" clip-rule="evenodd" d="M19.5 19.4142L22.8609 16.0533C23.5353 15.3789 24.45 15 25.4038 15H28C29.6569 15 31 13.6569 31 12C31 10.3431 29.6569 9 28 9H3C1.34314 9 0 10.3431 0 12C0 13.6569 1.34315 15 3 15H12.1863C14.0428 15 15.8233 15.7375 17.136 17.0503L19.5 19.4142ZM19.5 16.5858L18.5503 15.636C16.8624 13.9482 14.5732 13 12.1863 13H3C2.44772 13 2 12.5523 2 12C2 11.4477 2.44772 11 3 11H28C28.5523 11 29 11.4477 29 12C29 12.5523 28.5523 13 28 13H25.4038C23.9196 13 22.4962 13.5896 21.4467 14.6391L19.5 16.5858Z" fill="currentColor"/>
</svg>
