<svg viewBox="0 0 32 32" fill="currentColor" xmlns="http://www.w3.org/2000/svg">
<path fill-rule="evenodd" clip-rule="evenodd" d="M5.29999 10.4C5.29999 9.84771 5.7477 9.39999 6.29999 9.39999H24.7C25.2523 9.39999 25.7 9.84771 25.7 10.4V22.1C25.7 23.6117 25.0995 25.0615 24.0305 26.1305C22.9616 27.1995 21.5117 27.8 20 27.8H11C9.48826 27.8 8.03848 27.1995 6.96953 26.1305C5.90059 25.0616 5.29999 23.6118 5.29999 22.1V10.4ZM7.29999 11.4V22.1C7.29999 23.0813 7.68984 24.0224 8.38374 24.7163C9.07763 25.4102 10.0187 25.8 11 25.8H20C20.9813 25.8 21.9224 25.4102 22.6163 24.7163C23.3102 24.0224 23.7 23.0813 23.7 22.1V11.4H7.29999Z" fill="currentColor"/>
<path fill-rule="evenodd" clip-rule="evenodd" d="M2 26.8C2 26.2477 2.44772 25.8 3 25.8H27.8C28.0652 25.8 28.3196 25.9054 28.5071 26.0929C28.6946 26.2804 28.8 26.5348 28.8 26.8C28.8 27.9139 28.3575 28.9822 27.5698 29.7699C26.7822 30.5575 25.714 31 24.6 31H6.29999C5.18607 31 4.11783 30.5575 3.33019 29.7699C2.65925 29.0989 2.23875 28.2243 2.12887 27.2914C2.04682 27.1463 2 26.9786 2 26.8ZM4.34044 27.8C4.44422 28.0034 4.57994 28.1912 4.7444 28.3556C5.15699 28.7682 5.71652 29 6.29999 29H24.6C25.1835 29 25.743 28.7682 26.1556 28.3556C26.3201 28.1912 26.4558 28.0034 26.5596 27.8H4.34044Z" fill="currentColor"/>
<path fill-rule="evenodd" clip-rule="evenodd" d="M9.29999 2.2C9.85227 2.2 10.3 2.64771 10.3 3.2V6.89999C10.3 7.45228 9.85227 7.89999 9.29999 7.89999C8.7477 7.89999 8.29999 7.45228 8.29999 6.89999V3.2C8.29999 2.64771 8.7477 2.2 9.29999 2.2Z" fill="currentColor"/>
<path fill-rule="evenodd" clip-rule="evenodd" d="M21.5 2.2C22.0523 2.2 22.5 2.64771 22.5 3.2V7C22.5 7.55228 22.0523 8 21.5 8C20.9477 8 20.5 7.55228 20.5 7V3.2C20.5 2.64771 20.9477 2.2 21.5 2.2Z" fill="currentColor"/>
<path fill-rule="evenodd" clip-rule="evenodd" d="M15.4 1C15.9523 1 16.4 1.44772 16.4 2V5.5C16.4 6.05228 15.9523 6.5 15.4 6.5C14.8477 6.5 14.4 6.05228 14.4 5.5V2C14.4 1.44772 14.8477 1 15.4 1Z" fill="currentColor"/>
<path fill-rule="evenodd" clip-rule="evenodd" d="M23.9919 11.8929C24.1794 11.7053 24.4337 11.6 24.699 11.6H29.5C30.0523 11.6 30.5 12.0477 30.5 12.6V16.3C30.5 17.8648 29.8784 19.3655 28.7719 20.4719C27.6795 21.5643 26.283 22.195 24.699 22.195C24.1467 22.195 23.699 21.7473 23.699 21.195L23.699 12.6C23.699 12.3348 23.8043 12.0804 23.9919 11.8929ZM25.699 13.6L25.699 20.0587C26.3112 19.8853 26.8675 19.548 27.3577 19.0577C28.0891 18.3263 28.5 17.3343 28.5 16.3V13.6H25.699Z" fill="currentColor"/>
</svg>
