<svg viewBox="0 0 32 32" fill="currentColor" xmlns="http://www.w3.org/2000/svg">
<path fill-rule="evenodd" clip-rule="evenodd" d="M23.0086 2.00057C23.0318 1.99979 23.055 1.99981 23.0782 2.00064C24.0623 2.03581 24.9944 2.45165 25.6779 3.16051C26.1411 3.64085 26.4657 4.23032 26.6266 4.86686C26.9417 4.92865 27.2489 5.03036 27.5406 5.17048C28.1173 5.44746 28.6147 5.86554 28.9867 6.38598C29.3587 6.90641 29.5933 7.51235 29.6688 8.14761C29.7442 8.78288 29.6581 9.42692 29.4183 10.02C29.1786 10.6131 28.7929 11.1361 28.2972 11.5405C27.8015 11.9448 27.2117 12.2175 26.5825 12.3332C25.9533 12.4489 25.3051 12.4038 24.698 12.2023C24.427 12.1123 24.168 11.9924 23.9257 11.8456L20.2577 15.5989C19.8717 15.9939 19.2385 16.0012 18.8436 15.6152C18.4486 15.2292 18.4413 14.5961 18.8273 14.2011L23.1273 9.80107C23.3186 9.6053 23.5818 9.49652 23.8555 9.50008C24.1292 9.50365 24.3895 9.61926 24.5756 9.81994C24.7817 10.0421 25.0406 10.2087 25.3281 10.3041C25.6157 10.3996 25.9228 10.421 26.2208 10.3662C26.5189 10.3114 26.7982 10.1822 27.0331 9.99066C27.2679 9.79912 27.4505 9.55139 27.5641 9.27044C27.6777 8.9895 27.7185 8.68443 27.6827 8.38351C27.647 8.0826 27.5359 7.79557 27.3596 7.54905C27.1834 7.30253 26.9478 7.1045 26.6747 6.97329C26.4015 6.84209 26.0996 6.78197 25.7971 6.79851C25.5227 6.81351 25.2542 6.71493 25.0547 6.52593C24.8552 6.33693 24.7423 6.07417 24.7425 5.79937C24.7428 5.33291 24.562 4.88456 24.2382 4.54878C23.9224 4.22133 23.4948 4.02588 23.0414 4.00093C22.573 4.02547 22.1296 4.22254 21.7973 4.55484C21.4616 4.89055 21.2639 5.33957 21.2427 5.81336C21.251 6.25572 21.4314 6.67776 21.7462 6.98948C21.9352 7.1767 22.0418 7.43153 22.0425 7.69758C22.0431 7.96363 21.9377 8.21898 21.7496 8.4071L17.4496 12.7071C17.0591 13.0976 16.4259 13.0976 16.0354 12.7071C15.6449 12.3166 15.6449 11.6834 16.0354 11.2929L19.723 7.60523C19.4149 7.06126 19.2468 6.44302 19.2425 5.80682C19.2424 5.79324 19.2426 5.77966 19.2431 5.7661C19.2766 4.77807 19.6841 3.83966 20.3831 3.14063C21.0821 2.44159 22.0205 2.0341 23.0086 2.00057Z" fill="currentColor"/>
<path fill-rule="evenodd" clip-rule="evenodd" d="M14.6698 9.86006C15.0648 9.501 15.6721 9.51545 16.0496 9.8929L21.3496 15.1929C21.7219 15.5652 21.7417 16.1623 21.3951 16.5585L20.6951 17.3585C20.6718 17.3851 20.6471 17.4105 20.6211 17.4345C20.1562 17.864 19.7849 18.3848 19.5305 18.9643C19.2787 19.5379 19.1467 20.1569 19.1426 20.7833C19.2145 22.7517 18.6006 24.6843 17.4053 26.2506C16.2058 27.8223 14.496 28.9267 12.5701 29.3738C11.2333 29.6884 9.84067 29.6782 8.50863 29.3443C7.17602 29.0102 5.94284 28.3617 4.91235 27.4531C3.88186 26.5445 3.08405 25.4022 2.58571 24.1219C2.08812 22.8436 1.90357 21.4647 2.04742 20.1006C2.24502 18.0082 3.21081 16.0631 4.75846 14.6409C6.30216 13.2224 8.31544 12.4246 10.4113 12.4003C11.5947 12.3359 12.7053 11.8072 13.5014 10.9285C13.5231 10.9046 13.5459 10.8818 13.5698 10.8601L14.6698 9.86006ZM14.9495 12.3087C13.7958 13.5623 12.1954 14.3133 10.4926 14.3988C10.4789 14.3994 10.4652 14.3998 10.4515 14.4C8.84265 14.4144 7.29636 15.025 6.11171 16.1136C4.92705 17.2022 4.18822 18.6914 4.03812 20.2933L4.03697 20.3056C3.92565 21.3541 4.06705 22.4139 4.4495 23.3965C4.83194 24.379 5.44421 25.2556 6.23506 25.9529C7.0259 26.6502 7.97229 27.1479 8.99499 27.4043C10.0177 27.6607 11.087 27.6684 12.1132 27.4266L12.1166 27.4259C13.5899 27.0842 14.8979 26.2395 15.8154 25.0372C16.7329 23.835 17.2025 22.3504 17.1432 20.8392C17.1427 20.8253 17.1425 20.8115 17.1425 20.7976C17.1447 19.8896 17.3342 18.9917 17.6992 18.1603C18.0568 17.3457 18.5754 16.612 19.2235 16.0032L19.2738 15.9456L15.3096 11.9813L14.9495 12.3087Z" fill="currentColor"/>
</svg>
