<svg viewBox="0 0 32 32" fill="currentColor" xmlns="http://www.w3.org/2000/svg">
<path d="M3.73078 12.0181V12.0001C3.73076 10.2222 4.2573 8.48419 5.24398 7.00523C6.23066 5.52626 7.63327 4.37267 9.27486 3.68997C10.9164 3.00728 12.7234 2.82608 14.4679 3.16924C16.2124 3.51239 17.8161 4.36453 19.0768 5.61813C20.0687 5.12856 21.1766 4.92271 22.2782 5.02335C23.3798 5.12398 24.4321 5.52718 25.3189 6.18838C26.2056 6.84959 26.8924 7.74307 27.3032 8.7701C27.714 9.79714 27.8329 10.9178 27.6468 12.0081C27.9205 12.0335 28.186 12.1151 28.4267 12.2476C28.6675 12.3802 28.8783 12.561 29.0461 12.7787C29.2139 12.9964 29.335 13.2463 29.4018 13.5129C29.4687 13.7795 29.4799 14.057 29.4348 14.3281C28.5308 19.7661 26.2948 23.2081 22.7308 24.6561V26.0001C22.7308 26.7958 22.4147 27.5588 21.8521 28.1215C21.2895 28.6841 20.5264 29.0001 19.7308 29.0001H11.7308C10.9351 29.0001 10.1721 28.6841 9.60946 28.1215C9.04685 27.5588 8.73078 26.7958 8.73078 26.0001V24.6561C5.16678 23.2081 2.93078 19.7661 2.02678 14.3281C1.98315 14.0642 1.99291 13.7942 2.05547 13.5342C2.11803 13.2741 2.23213 13.0292 2.39101 12.814C2.54989 12.5988 2.75033 12.4177 2.98045 12.2813C3.21058 12.145 3.46572 12.0561 3.73078 12.0201V12.0181ZM5.73078 12.0001H7.73078C7.73078 10.6741 8.25757 9.40228 9.19525 8.4646C10.1329 7.52692 11.4047 7.00013 12.7308 7.00013C14.0569 7.00013 15.3286 7.52692 16.2663 8.4646C17.204 9.40228 17.7308 10.6741 17.7308 12.0001H19.7308C19.7308 10.1436 18.9933 8.36314 17.6805 7.05038C16.3678 5.73763 14.5873 5.00013 12.7308 5.00013C10.8743 5.00013 9.09379 5.73763 7.78103 7.05038C6.46828 8.36314 5.73078 10.1436 5.73078 12.0001ZM9.73078 12.0001H15.7308C15.7308 11.2045 15.4147 10.4414 14.8521 9.87881C14.2895 9.3162 13.5264 9.00013 12.7308 9.00013C11.9351 9.00013 11.1721 9.3162 10.6095 9.87881C10.0469 10.4414 9.73078 11.2045 9.73078 12.0001ZM23.4628 12.0001H25.6048C25.7558 11.4091 25.7698 10.7914 25.6459 10.194C25.522 9.59671 25.2634 9.03556 24.8898 8.55333C24.5161 8.0711 24.0374 7.68052 23.4899 7.41136C22.9425 7.1422 22.3408 7.00155 21.7308 7.00013C21.2508 7.00013 20.7948 7.08413 20.3708 7.23813C20.7248 7.80613 21.0168 8.41813 21.2408 9.06013C21.6217 8.96565 22.022 8.98511 22.392 9.11608C22.7619 9.24706 23.0853 9.48378 23.322 9.79689C23.5586 10.11 23.6981 10.4857 23.7231 10.8774C23.7482 11.269 23.6576 11.6594 23.4628 12.0001ZM20.7308 25.0001H10.7308V26.0001C10.7308 26.2654 10.8361 26.5197 11.0237 26.7072C11.2112 26.8948 11.4656 27.0001 11.7308 27.0001H19.7308C19.996 27.0001 20.2504 26.8948 20.4379 26.7072C20.6254 26.5197 20.7308 26.2654 20.7308 26.0001V25.0001ZM10.0268 23.0001H21.4348C24.6068 21.9801 26.6148 19.0961 27.4628 14.0001H3.99878C4.84678 19.0961 6.85478 21.9801 10.0268 23.0001Z" fill="currentColor"/>
</svg>
