<svg viewBox="0 0 26 31" fill="currentColor" xmlns="http://www.w3.org/2000/svg">
<path fill-rule="evenodd" clip-rule="evenodd" d="M15.042 3.53696C13.9001 2.53636 12.4308 1.98953 10.9126 2.00015C9.39434 2.01077 7.9328 2.5781 6.80502 3.59457C5.67724 4.61104 4.96164 6.00599 4.79388 7.51494C4.73758 8.02135 4.30953 8.40445 3.8 8.40445C3.32261 8.40445 2.86477 8.59409 2.52721 8.93166C2.18964 9.26922 2 9.72706 2 10.2044C2 10.6818 2.18964 11.1397 2.52721 11.4772C2.86477 11.8148 3.32261 12.0044 3.8 12.0044H5.6C6.15228 12.0044 6.6 12.4522 6.6 13.0044V19.0044C6.6 19.2962 6.71589 19.576 6.92219 19.7823C7.12848 19.9886 7.40826 20.1044 7.7 20.1044C7.99174 20.1044 8.27153 19.9886 8.47782 19.7823C8.68411 19.576 8.8 19.2962 8.8 19.0044V13.0044C8.8 12.4522 9.24772 12.0044 9.8 12.0044H17.8C18.0495 12.0044 18.2966 11.9553 18.5271 11.8598C18.7576 11.7643 18.9671 11.6244 19.1435 11.448C19.3199 11.2715 19.4599 11.0621 19.5554 10.8315C19.6509 10.601 19.7 10.354 19.7 10.1044L19.7 10.1019C19.7012 9.64597 19.5293 9.20658 19.219 8.87248C18.9088 8.53838 18.4833 8.33446 18.0286 8.30189C17.5527 8.26781 17.1671 7.90226 17.1078 7.42883C16.9189 5.92236 16.1839 4.53756 15.042 3.53696ZM10.8986 0.000200693C12.9065 -0.013841 14.8499 0.709385 16.3601 2.03276C17.6839 3.19276 18.5942 4.74319 18.9671 6.45018C19.6201 6.64125 20.2149 7.00574 20.6846 7.51158C21.3393 8.21659 21.7021 9.14367 21.7 10.1057C21.6998 10.6174 21.599 11.1241 21.4031 11.5969C21.2071 12.0701 20.9199 12.5 20.5577 12.8622C20.1956 13.2243 19.7656 13.5116 19.2925 13.7076C18.8193 13.9036 18.3122 14.0044 17.8 14.0044H10.8V19.0044C10.8 19.8266 10.4734 20.6151 9.89204 21.1965C9.31067 21.7778 8.52217 22.1044 7.7 22.1044C6.87784 22.1044 6.08934 21.7778 5.50797 21.1965C4.92662 20.6151 4.6 19.8266 4.6 19.0044V14.0044H3.8C2.79218 14.0044 1.82563 13.6041 1.11299 12.8915C0.400351 12.1788 0 11.2123 0 10.2044C0 9.19662 0.400353 8.23008 1.11299 7.51744C1.61756 7.01288 2.24941 6.66486 2.93307 6.50465C3.29004 4.81522 4.17329 3.27408 5.46602 2.10894C6.9576 0.76458 8.89061 0.0142424 10.8986 0.000200693ZM21.7 10.1057L21.7 10.107L20.7 10.1044H21.7V10.1057Z" fill="currentColor"/>
<path fill-rule="evenodd" clip-rule="evenodd" d="M14.2 16.3044C14.7523 16.3044 15.2 16.7522 15.2 17.3044V25.6044C15.2 26.1567 14.7523 26.6044 14.2 26.6044C13.6477 26.6044 13.2 26.1567 13.2 25.6044V17.3044C13.2 16.7522 13.6477 16.3044 14.2 16.3044Z" fill="currentColor"/>
<path fill-rule="evenodd" clip-rule="evenodd" d="M7.7 23.3044C8.25229 23.3044 8.7 23.7522 8.7 24.3044V26.2044C8.7 26.7567 8.25229 27.2044 7.7 27.2044C7.14772 27.2044 6.7 26.7567 6.7 26.2044V24.3044C6.7 23.7522 7.14772 23.3044 7.7 23.3044Z" fill="currentColor"/>
<path fill-rule="evenodd" clip-rule="evenodd" d="M1.9 11.3044C2.45229 11.3044 2.9 11.7522 2.9 12.3044V27.2044C2.9 27.4697 3.00536 27.724 3.19289 27.9116C3.38043 28.0991 3.63478 28.2044 3.9 28.2044H17.7C17.9652 28.2044 18.2196 28.0991 18.4071 27.9116C18.5946 27.724 18.7 27.4697 18.7 27.2044V12.3044C18.7 11.7522 19.1477 11.3044 19.7 11.3044C20.2523 11.3044 20.7 11.7522 20.7 12.3044V27.2044C20.7 28.0001 20.3839 28.7632 19.8213 29.3258C19.2587 29.8884 18.4957 30.2044 17.7 30.2044H3.9C3.10435 30.2044 2.34129 29.8884 1.77868 29.3258C1.21607 28.7632 0.900002 28.0001 0.900002 27.2044V12.3044C0.900002 11.7522 1.34772 11.3044 1.9 11.3044Z" fill="currentColor"/>
<path fill-rule="evenodd" clip-rule="evenodd" d="M18.7 14.8044C18.7 14.2522 19.1477 13.8044 19.7 13.8044H22.8C23.4365 13.8044 24.047 14.0573 24.4971 14.5074C24.9471 14.9575 25.2 15.5679 25.2 16.2044V22.5044C25.2 23.141 24.9471 23.7514 24.4971 24.2015C24.047 24.6516 23.4365 24.9044 22.8 24.9044H19.7C19.1477 24.9044 18.7 24.4567 18.7 23.9044V14.8044ZM20.7 15.8044V22.9044H22.8C22.9061 22.9044 23.0078 22.8623 23.0828 22.7873C23.1579 22.7123 23.2 22.6105 23.2 22.5044V16.2044C23.2 16.0984 23.1579 15.9966 23.0828 15.9216C23.0078 15.8466 22.9061 15.8044 22.8 15.8044H20.7Z" fill="currentColor"/>
</svg>
