<svg viewBox="0 0 32 32" fill="currentColor" xmlns="http://www.w3.org/2000/svg">
<path fill-rule="evenodd" clip-rule="evenodd" d="M11.6 2C11.6 1.44772 12.0477 1 12.6 1H24.2C25.8178 1 27.3694 1.6427 28.5133 2.78667C29.6573 3.93064 30.3 5.48221 30.3 7.10004C30.3 9.83177 29.2148 12.4516 27.2832 14.3832C25.3516 16.3148 22.7317 17.4 20 17.4H15.8C14.7657 17.4 13.7737 17.8109 13.0423 18.5423C12.3133 19.2713 11.9027 20.2591 11.9 21.2898C11.9234 22.3065 12.3431 23.2741 13.0698 23.986C13.799 24.7003 14.7791 25.1002 15.7998 25.1C15.8086 25.1 15.8174 25.1001 15.8262 25.1004C16.8291 25.1267 17.8287 24.9752 18.7788 24.653L18.7936 24.6481L27.4936 21.8481C27.7979 21.7502 28.1306 21.8036 28.3889 21.9918C28.6472 22.18 28.8 22.4804 28.8 22.8V29.1C28.8 29.6523 28.3523 30.1 27.8 30.1H13C9.81738 30.1 6.76514 28.8357 4.51471 26.5853C2.26427 24.3348 1 21.2826 1 18.1C1 14.9174 2.26427 11.8652 4.51471 9.61473C6.76515 7.36429 9.81739 6.10004 13 6.10004H28.1762C27.9969 5.38723 27.6276 4.72935 27.0991 4.20088C26.3302 3.43197 25.2874 3 24.2 3H12.6C12.0477 3 11.6 2.55228 11.6 2ZM28.2396 8.10004H13C10.3478 8.10004 7.80428 9.15359 5.92892 11.0289C4.05356 12.9043 3 15.4479 3 18.1C3 20.7522 4.05356 23.2957 5.92892 25.1711C7.80429 27.0464 10.3478 28.1 13 28.1H26.8V24.1723L19.4136 26.5496C18.2463 26.9445 17.0186 27.1308 15.7867 27.1C14.2474 27.0968 12.7701 26.4921 11.6703 25.4147C10.5672 24.3342 9.93172 22.8642 9.9002 21.3204L9.89999 21.3C9.89999 19.7352 10.5216 18.2346 11.6281 17.1281C12.7345 16.0216 14.2352 15.4 15.8 15.4H20C22.2013 15.4 24.3124 14.5255 25.869 12.969C27.188 11.65 28.0172 9.93285 28.2396 8.10004Z" fill="currentColor"/>
<path fill-rule="evenodd" clip-rule="evenodd" d="M14.7 6.10004C15.2523 6.10004 15.7 6.54775 15.7 7.10004V16.5C15.7 17.0523 15.2523 17.5 14.7 17.5C14.1477 17.5 13.7 17.0523 13.7 16.5V7.10004C13.7 6.54775 14.1477 6.10004 14.7 6.10004Z" fill="currentColor"/>
<path fill-rule="evenodd" clip-rule="evenodd" d="M3.79289 10.3929C4.18342 10.0024 4.81658 10.0024 5.20711 10.3929L12.5071 17.6929C12.8976 18.0834 12.8976 18.7166 12.5071 19.1071C12.1166 19.4977 11.4834 19.4977 11.0929 19.1071L3.79289 11.8071C3.40237 11.4166 3.40237 10.7835 3.79289 10.3929Z" fill="currentColor"/>
<path fill-rule="evenodd" clip-rule="evenodd" d="M2 22.7C2 22.1477 2.44772 21.7 3 21.7H11.1C11.6523 21.7 12.1 22.1477 12.1 22.7C12.1 23.2523 11.6523 23.7 11.1 23.7H3C2.44772 23.7 2 23.2523 2 22.7Z" fill="currentColor"/>
<path fill-rule="evenodd" clip-rule="evenodd" d="M16.4 25.3C16.9523 25.3 17.4 25.7477 17.4 26.3V29.1C17.4 29.6523 16.9523 30.1 16.4 30.1C15.8477 30.1 15.4 29.6523 15.4 29.1V26.3C15.4 25.7477 15.8477 25.3 16.4 25.3Z" fill="currentColor"/>
<path d="M20.2 11.7C20.8627 11.7 21.4 11.1627 21.4 10.5C21.4 9.83726 20.8627 9.29999 20.2 9.29999C19.5373 9.29999 19 9.83726 19 10.5C19 11.1627 19.5373 11.7 20.2 11.7Z" fill="currentColor"/>
</svg>
