<svg  viewBox="0 0 32 32" fill="currentColor" xmlns="http://www.w3.org/2000/svg">
<path fill-rule="evenodd" clip-rule="evenodd" d="M1 17C1 16.4477 1.44772 16 2 16H29.4C29.9523 16 30.4 16.4477 30.4 17V19.6C30.4 22.4378 29.2727 25.1594 27.2661 27.1661C25.2594 29.1727 22.5378 30.3 19.7 30.3H11.7C8.8622 30.3 6.1406 29.1727 4.13396 27.1661C2.12732 25.1594 1 22.4378 1 19.6V17ZM3 18V19.6C3 21.9074 3.91661 24.1203 5.54817 25.7518C7.17974 27.3834 9.39263 28.3 11.7 28.3H19.7C22.0074 28.3 24.2203 27.3834 25.8519 25.7518C27.4834 24.1203 28.4 21.9074 28.4 19.6V18H3Z" fill="currentColor"/>
<path fill-rule="evenodd" clip-rule="evenodd" d="M15.5 4C12.8351 4 10.2468 4.90951 8.15466 6.58326C6.06225 8.25719 4.5882 10.5979 3.97377 13.2275C3.84811 13.7653 3.31027 14.0994 2.77247 13.9738C2.23467 13.8481 1.90057 13.3103 2.02623 12.7725C2.74202 9.70904 4.46031 6.9775 6.90526 5.02153C9.35044 3.06538 12.3788 2 15.5 2C18.6212 2 21.6496 3.06538 24.0947 5.02153C26.5397 6.9775 28.258 9.70904 28.9738 12.7725C29.0994 13.3103 28.7653 13.8481 28.2275 13.9738C27.6897 14.0994 27.1519 13.7653 27.0262 13.2275C26.4118 10.5979 24.9377 8.25719 22.8453 6.58326C20.7532 4.90951 18.1649 4 15.5 4Z" fill="currentColor"/>
<path fill-rule="evenodd" clip-rule="evenodd" d="M11.3999 21C11.3999 20.4477 11.8476 20 12.3999 20H19.4999C20.0522 20 20.4999 20.4477 20.4999 21C20.4999 21.5523 20.0522 22 19.4999 22H12.3999C11.8476 22 11.3999 21.5523 11.3999 21Z" fill="currentColor"/>
</svg>
