<svg viewBox="0 0 26 27" fill="currentColor" xmlns="http://www.w3.org/2000/svg">
<path fill-rule="evenodd" clip-rule="evenodd" d="M13.005 1.25033e-05C13.3611 0.00178956 13.6895 0.192846 13.867 0.501607L25.767 21.2016C25.8999 21.4329 25.935 21.7078 25.8642 21.9651C25.7935 22.2224 25.6228 22.4407 25.3903 22.5716C17.0859 27.2428 8.81416 27.2428 0.509741 22.5716C0.276592 22.4404 0.105707 22.2213 0.0352807 21.9633C-0.0351452 21.7052 0.000760213 21.4297 0.134972 21.1983L5.93497 11.1983L7.66504 12.2017L2.38172 21.3109C9.47221 24.997 16.4313 24.9964 23.5218 21.309L12.9901 2.98918L10.8619 6.60703L9.13807 5.59299L12.1381 0.49298C12.3186 0.186006 12.6489 -0.00176461 13.005 1.25033e-05Z" fill="currentColor"/>
<path fill-rule="evenodd" clip-rule="evenodd" d="M12.95 22.1289C9.14011 22.1289 5.40635 21.062 2.17166 19.049L3.22836 17.351C6.14593 19.1666 9.51364 20.1289 12.95 20.1289C16.3864 20.1289 19.7541 19.1666 22.6717 17.351L23.7284 19.049C20.4937 21.062 16.7599 22.1289 12.95 22.1289Z" fill="currentColor"/>
<path fill-rule="evenodd" clip-rule="evenodd" d="M14.9 14.7C14.403 14.7 14 15.1029 14 15.6C14 16.097 14.4029 16.5 14.9 16.5C15.3971 16.5 15.8 16.097 15.8 15.6C15.8 15.1029 15.397 14.7 14.9 14.7ZM12 15.6C12 13.9984 13.2984 12.7 14.9 12.7C16.5016 12.7 17.8 13.9984 17.8 15.6C17.8 17.2017 16.5016 18.5 14.9 18.5C13.2984 18.5 12 17.2017 12 15.6Z" fill="currentColor"/>
<path fill-rule="evenodd" clip-rule="evenodd" d="M9.13176 5.60387C9.38133 5.16712 9.91648 4.98374 10.3815 5.17562C11.1577 5.49595 11.8261 6.03171 12.3076 6.71966C12.7892 7.4076 13.0638 8.21898 13.0991 9.05798C13.0997 9.07198 13.1 9.08599 13.1 9.10001C13.1 10.2404 12.647 11.3341 11.8406 12.1405C11.0342 12.947 9.94044 13.4 8.80001 13.4C8.78458 13.4 8.76916 13.3996 8.75376 13.3989C7.83832 13.3565 6.95526 13.0475 6.21322 12.5097C5.79977 12.2101 5.67844 11.6472 5.93176 11.2038L9.13176 5.60387ZM10.3522 7.49926L8.18736 11.2877C8.39296 11.3501 8.60626 11.388 8.82288 11.3999C9.42461 11.3939 10.0004 11.1523 10.4263 10.7263C10.8527 10.2999 11.0944 9.72338 11.0999 9.12097C11.077 8.67083 10.9278 8.23606 10.6692 7.86658C10.5757 7.73313 10.4694 7.61017 10.3522 7.49926Z" fill="currentColor"/>
</svg>
