<svg viewBox="0 0 32 32" fill="currentColor" xmlns="http://www.w3.org/2000/svg">
<path fill-rule="evenodd" clip-rule="evenodd" d="M22.0739 3.08937C21.6474 2.98641 21.2043 2.97224 20.7721 3.04775C20.7541 3.05089 20.736 3.05354 20.7179 3.05569L4.71791 4.95569C4.70244 4.95752 4.68694 4.959 4.67141 4.96011C4.21665 4.99268 3.79121 5.19659 3.48097 5.53069C3.17435 5.8609 3.00287 6.29394 3.00004 6.74416C3.00977 6.96769 3.0635 7.18709 3.1582 7.38978C3.25512 7.59723 3.39303 7.78302 3.56361 7.93596C3.73418 8.08888 3.93383 8.20573 4.15061 8.27952C4.36743 8.35333 4.5969 8.38255 4.82531 8.36545C4.85016 8.36359 4.87506 8.36266 4.89997 8.36266H7.59998C8.15227 8.36266 8.59998 8.81037 8.59998 9.36266C8.59998 9.91494 8.15227 10.3627 7.59998 10.3627H4.93441C4.45061 10.3936 3.96533 10.3291 3.50614 10.1728C3.0342 10.0122 2.59965 9.75784 2.22852 9.4251C1.8574 9.09237 1.55725 8.68805 1.34621 8.23636C1.13518 7.78467 1.01767 7.29504 1.0006 6.7969C1.00023 6.78634 1.00004 6.77577 1.00001 6.76521C0.997554 5.8027 1.36044 4.87511 2.01538 4.16979C2.66463 3.4706 3.55288 3.04149 4.50349 2.9671L20.4563 1.07271C21.1496 0.955545 21.8596 0.980168 22.5432 1.14523C23.2363 1.31254 23.8874 1.62058 24.4564 2.05018C25.0253 2.4798 25.4998 3.02181 25.8504 3.64254C26.2011 4.26325 26.4203 4.94945 26.4946 5.65853C26.4968 5.67986 26.4984 5.70126 26.4992 5.72269C26.5371 6.67043 26.2934 7.60817 25.7988 8.4175C25.3042 9.22684 24.5809 9.87147 23.7203 10.2701C23.2191 10.5022 22.6247 10.2841 22.3926 9.78291C22.1605 9.28177 22.3786 8.68735 22.8797 8.45525C23.3818 8.22273 23.8037 7.84669 24.0922 7.3746C24.3752 6.91157 24.5174 6.37648 24.5019 5.83452C24.4531 5.40967 24.3195 4.99877 24.109 4.62618C23.8933 4.24417 23.6013 3.91063 23.2512 3.64627C22.901 3.38188 22.5003 3.19233 22.0739 3.08937Z" fill="currentColor"/>
<path fill-rule="evenodd" clip-rule="evenodd" d="M27.5724 6.14434C27.0374 6.08065 26.4971 6.20678 26.0456 6.50074C25.5828 6.80207 24.9633 6.67115 24.662 6.20832C24.3606 5.74548 24.4916 5.126 24.9544 4.82467C25.7985 4.27512 26.8087 4.03929 27.8088 4.15836C28.809 4.27743 29.7356 4.74381 30.4271 5.47618C30.8063 5.87775 30.7881 6.51066 30.3865 6.88981C29.985 7.26897 29.3521 7.25079 28.9729 6.84922C28.603 6.4575 28.1074 6.20802 27.5724 6.14434Z" fill="currentColor"/>
<path fill-rule="evenodd" clip-rule="evenodd" d="M13.0033 17.0811C13.0458 16.5622 13.4793 16.1627 14 16.1627H16.3C16.8207 16.1627 17.2542 16.5622 17.2967 17.0811L18.1967 28.0811C18.1989 28.1083 18.2 28.1355 18.2 28.1627C18.2 28.9849 17.8733 29.7734 17.292 30.3547C16.7107 30.936 15.9224 31.2626 15.1004 31.2627C14.6938 31.2631 14.2914 31.1808 13.9174 31.0209C13.5433 30.8608 13.2057 30.6263 12.9251 30.3317C12.6445 30.037 12.4267 29.6884 12.2851 29.3069C12.1434 28.9254 12.0809 28.5191 12.1012 28.1127C12.1018 28.1022 12.1024 28.0916 12.1033 28.0811L13.0033 17.0811ZM14.9215 18.1627L14.0982 28.2258C14.0933 28.3568 14.1143 28.4877 14.16 28.6107C14.2072 28.7379 14.2798 28.8541 14.3734 28.9523C14.4669 29.0506 14.5795 29.1287 14.7041 29.1821C14.8288 29.2354 14.963 29.2628 15.0987 29.2627H15.1C15.3917 29.2627 15.6715 29.1468 15.8778 28.9405C16.076 28.7423 16.1908 28.4762 16.1995 28.197L15.3785 18.1627H14.9215Z" fill="currentColor"/>
<path fill-rule="evenodd" clip-rule="evenodd" d="M10.8443 12.1749C11.3899 12.0889 11.9018 12.4614 11.9878 13.007C12.1028 13.7365 12.4744 14.401 13.0358 14.8808C13.5972 15.3607 14.3115 15.6243 15.05 15.6243C15.7885 15.6243 16.5027 15.3607 17.0641 14.8808C17.6255 14.401 17.9972 13.7365 18.1122 13.007C18.1982 12.4614 18.7101 12.0889 19.2557 12.1749C19.8012 12.2609 20.1738 12.7728 20.0878 13.3184C19.8986 14.5186 19.2872 15.6117 18.3636 16.4012C17.44 17.1906 16.265 17.6243 15.05 17.6243C13.835 17.6243 12.66 17.1906 11.7364 16.4012C10.8128 15.6117 10.2014 14.5186 10.0122 13.3184C9.92621 12.7728 10.2988 12.2609 10.8443 12.1749Z" fill="currentColor"/>
<path fill-rule="evenodd" clip-rule="evenodd" d="M11 6.76266C11.5523 6.76266 12 7.21038 12 7.76266V13.1627C12 13.715 11.5523 14.1627 11 14.1627C10.4477 14.1627 10 13.715 10 13.1627V7.76266C10 7.21038 10.4477 6.76266 11 6.76266Z" fill="currentColor"/>
<path fill-rule="evenodd" clip-rule="evenodd" d="M15.1 6.76266C15.6523 6.76266 16.1 7.21038 16.1 7.76266V12.9627C16.1 13.515 15.6523 13.9627 15.1 13.9627C14.5477 13.9627 14.1 13.515 14.1 12.9627V7.76266C14.1 7.21038 14.5477 6.76266 15.1 6.76266Z" fill="currentColor"/>
<path fill-rule="evenodd" clip-rule="evenodd" d="M19.1 6.76266C19.6523 6.76266 20.1 7.21038 20.1 7.76266V13.1627C20.1 13.715 19.6523 14.1627 19.1 14.1627C18.5477 14.1627 18.1 13.715 18.1 13.1627V7.76266C18.1 7.21038 18.5477 6.76266 19.1 6.76266Z" fill="currentColor"/>
</svg>
